<svg height="512" viewBox="0 0 64 64" width="512" xmlns="http://www.w3.org/2000/svg"><g id="filled_outline" data-name="filled outline"><rect fill="#90caf9" height="41" rx="2" width="49" x="4" y="11"/><g fill="#fff"><path d="m6 14a1 1 0 0 1 1-1 1 1 0 0 1 1 1 1 1 0 0 1 -1 1 1 1 0 0 1 -1-1z"/><path d="m48 14a1 1 0 0 1 1-1 1 1 0 0 1 1 1 1 1 0 0 1 -1 1 1 1 0 0 1 -1-1zm-4 0a1 1 0 0 1 1-1 1 1 0 0 1 1 1 1 1 0 0 1 -1 1 1 1 0 0 1 -1-1zm-4 0a1 1 0 0 1 1-1 1 1 0 0 1 1 1 1 1 0 0 1 -1 1 1 1 0 0 1 -1-1zm-4 0a1 1 0 0 1 1-1 1 1 0 0 1 1 1 1 1 0 0 1 -1 1 1 1 0 0 1 -1-1z"/><path d="m49 26h-41a1 1 0 0 1 -1-1v-7a1 1 0 0 1 1-1h41a1 1 0 0 1 1 1v7a1 1 0 0 1 -1 1z"/><path d="m49 30h-18a1 1 0 0 1 0-2h18a1 1 0 0 1 0 2z"/><path d="m49 34h-11a1 1 0 0 1 0-2h11a1 1 0 0 1 0 2z"/><path d="m49 48h-11a1 1 0 0 1 -1-1v-10a1 1 0 0 1 1-1h11a1 1 0 0 1 1 1v10a1 1 0 0 1 -1 1z"/></g><path d="m4 41h30a0 0 0 0 1 0 0v17a2 2 0 0 1 -2 2h-26a2 2 0 0 1 -2-2v-17a0 0 0 0 1 0 0z" fill="#b2dfdb"/><path d="m6 34h26a2 2 0 0 1 2 2v5a0 0 0 0 1 0 0h-30a0 0 0 0 1 0 0v-5a2 2 0 0 1 2-2z" fill="#26a69a"/><path d="m8 45h4v4h-4z" fill="#fff"/><path d="m8 53h4v4h-4z" fill="#fff"/><path d="m17 45h4v4h-4z" fill="#fff"/><rect fill="#fff" height="4" rx="2" width="4" x="17" y="53"/><path d="m26 45h4v4h-4z" fill="#fff"/><path d="m26 53h4v4h-4z" fill="#fff"/><rect fill="#00897b" height="6" rx="1" width="4" x="9" y="31"/><rect fill="#00897b" height="6" rx="1" width="4" x="25" y="31"/><path d="m46.57 30.23h7.5v14.89h-7.5z" fill="#fff" transform="matrix(.707 .707 -.707 .707 41.38 -24.55)"/><path d="m41 47 1.41-6.71 5.3 5.3z" fill="#fff"/><path d="m59.61 28.39a4.76 4.76 0 0 0 -6.72 0l-.66.66-10.53 10.53a1.07 1.07 0 0 0 -.19.28v.09s0 .07 0 .11l-1.51 6.73a1 1 0 0 0 .27.92 1 1 0 0 0 .73.29h.21l6.71-1.41h.11.09a1.32 1.32 0 0 0 .29-.19l10.59-10.63.66-.66a4.76 4.76 0 0 0 -.05-6.72zm-6.67 2.79 1.23 1.23-9.11 9.12-1.24-1.24zm-10.65 14.53.71-3.41 2.7 2.7zm5.42-1.53-1.24-1.24 9.12-9.11 1.24 1.24z" fill="#ff8a80"/></g></svg>