<svg enable-background="new 0 0 64 64" height="512" viewBox="0 0 64 64" width="512" xmlns="http://www.w3.org/2000/svg"><g id="Icons"><g><path d="m28 34h24v-22l-8-8h-32v56h40v-6h-24z" fill="#f0f0f0"/></g><g><path d="m12 4h4v56h-4z" fill="#d2d2d2"/></g><g><path d="m44 4v8h8z" fill="#d2d2d2"/></g><g><path d="m30 36h30v16h-30z" fill="#64c8f0"/></g><g><path d="m30 36h2v16h-2z" fill="#46aad2" transform="matrix(-1 0 0 -1 62 88)"/></g><g><path d="m42 40v8h6v-8zm4 6h-2v-4h2z" fill="#f0f0f0"/></g><g><path d="m34 40v8h6v-2h-4v-6z" fill="#f0f0f0"/></g><g><path d="m50 40v8h6v-4h-2v2h-2v-4h4v-2z" fill="#f0f0f0"/></g><g><path d="m20 16h24v2h-24z" fill="#505050"/></g><g><path d="m20 20h24v2h-24z" fill="#505050"/></g><g><path d="m20 24h24v2h-24z" fill="#505050"/></g><g><path d="m20 28h24v2h-24z" fill="#505050"/></g></g></svg>