<svg height="512" viewBox="0 0 512 512" width="512" xmlns="http://www.w3.org/2000/svg"><g id="FLAT"><rect fill="#dfdfdf" height="368" rx="16" width="464" x="24" y="24"/><path d="m24 56h464v272h-464z" fill="#ededed"/><path d="m24 328v48a16.00016 16.00016 0 0 0 16 16h432a16.00016 16.00016 0 0 0 16-16v-48z" fill="#bebebe"/><path d="m304 392h-96l-24 96h144z" fill="#8c8c8c"/><path d="m344 145.5v93a16.00663 16.00663 0 0 1 -8.31982 14.04l-72.02 39.28a15.94869 15.94869 0 0 1 -15.32007 0l-72.02-39.28a16.00637 16.00637 0 0 1 -8.32011-14.04v-93a16.00391 16.00391 0 0 1 8.34009-14.05l72-39.27a15.967 15.967 0 0 1 15.32007 0l72 39.27a16.00434 16.00434 0 0 1 8.33984 14.05z" fill="#53a5d3"/><path d="m344 145.5v93a16.00663 16.00663 0 0 1 -8.31982 14.04l-72.02 39.28a15.98778 15.98778 0 0 1 -7.66018 1.96v-109.78l85.71-46.75a16.02385 16.02385 0 0 1 2.29 8.25z" fill="#256eb7"/><path d="m24 56h72v272h-72z" fill="#71bfe2"/><path d="m416 56h72v272h-72z" fill="#71bfe2"/><path d="m416 152h72v96h-72z" fill="#53a5d3"/><path d="m392 272h-16v-16h-16v16h-16v16h16v16h16v-16h16z" fill="#71bfe2"/><g fill="#3481c1"><path d="m440 80h24v16h-24z"/><path d="m440 112h24v16h-24z"/><path d="m440 176h24v16h-24z"/><path d="m440 208h24v16h-24z"/><path d="m440 280h24v16h-24z"/></g><path d="m376 80h16v16h-16z" fill="#bebebe"/><path d="m344 80h16v16h-16z" fill="#bebebe"/><path d="m48 88h24v16h-24z" fill="#3481c1"/><path d="m48 128h24v16h-24z" fill="#3481c1"/><path d="m48 168h24v16h-24z" fill="#3481c1"/><path d="m24 216h72v112h-72z" fill="#53a5d3"/><path d="m48 248h24v16h-24z" fill="#3481c1"/><path d="m48 280h24v16h-24z" fill="#3481c1"/><path d="m152 96v-16h-32v16h8v192h-8v16h32v-16h-8v-192z" fill="#bebebe"/><path d="m136 480h240v16h-240z" fill="#bebebe"/><path d="m256 184v109.78a15.98679 15.98679 0 0 1 -7.65991-1.96l-72.02-39.28a16.00637 16.00637 0 0 1 -8.32009-14.04v-93a16.02625 16.02625 0 0 1 2.29-8.25z" fill="#3481c1"/></g></svg>