<svg id="Layer_1" enable-background="new 0 0 50 50" height="512" viewBox="0 0 50 50" width="512" xmlns="http://www.w3.org/2000/svg"><g><g><g><g><g><g><g enable-background="new"><g><path d="m47.3959 36.9206c-.001.2974-.572.4153-.572.4153l.0574-20.0604c0-.5472-.3921-1.2252-.8658-1.5028l-24.8141-14.3216c-.2451-.1388-.4656-.1552-.6208-.057l.5718-.335c.1633-.0901.3839-.0818.6289.057l24.8059 14.3216c.482.278.874.9556.8658 1.5032z" fill="#39414d"/></g><g><path d="m46.0122 15.774c.4798.277.8697.9522.8681 1.5036l-.0564 20.0584-26.5548-15.4133.0566-19.9736c.0016-.5514.394-.7749.879-.4949z" fill="#475160"/></g><path d="m21.0877 21.0785.0542-18.7176 24.9232 14.3866-.0543 18.7178z" fill="#55b8e8"/></g></g><g><g enable-background="new"><path d="m46.9743 37.4825-.0082 1.3317c0 .2122-.1388.4164-.4166.5799l-16.1161 9.3609c-.5554.3267-1.4622.3267-2.0258 0l-25.436-14.6866c-.2859-.1635-.4248-.3757-.4248-.5963v-1.3313c0 .2202.1388.4327.4248.5959l25.4361 14.687c.5636.3267 1.4703.3267 2.034 0l16.1161-9.3609c.2776-.1635.4083-.3678.4165-.5803z" fill="#bfbfbf"/><g><path d="m46.5432 36.8846c.5633.3252.5716.852.0119 1.1773l-16.114 9.3644c-.5594.3251-1.4692.3221-2.0325-.0031l-25.4344-14.6846c-.5632-.3252-.5713-.8522-.0119-1.1773l16.114-9.3644c.5597-.3252 1.4692-.3221 2.0324.003z" fill="#f1f1f1"/></g><g><g><path d="m18.5104 27.7293v.0083l-1.3596.7901-.0144.0001-2.6543-1.5325v-.0083l1.3596-.7902h.0144z" fill="#b0afb0"/></g><g><path d="m15.5224 29.9026v.0083l-1.3594.7901h-.0144l-1.2751-.7362v-.0083l1.3595-.79h.0143z" fill="#b0afb0"/></g><g><path d="m13.8307 28.9259v.0083l-1.3595.7901h-.0143l-1.2751-.7362v-.0083l1.3595-.79.0143-.0001z" fill="#b0afb0"/></g><g enable-background="new"><g><path d="m20.2632 28.7413v.0083l-1.3596.7901h-.0144l-1.4906-.8606v-.0083l1.3597-.7901h.0143z" fill="#b0afb0"/></g><g><path d="m17.8027 29.2058v.0083l-1.3596.7901h-.0144l-3.5738-2.0633v-.0083l1.3596-.7901.0144-.0001z" fill="#b0afb0"/></g></g><g><path d="m19.7637 26.5225v.0083l-1.3595.79h-.0143l-2.2413-1.294v-.0083l1.3594-.79h.0144z" fill="#b0afb0"/></g><g><path d="m25.2164 26.5701v.0083l-.7529.4376h-.0143l-1.4906-.8606v-.0083l.7529-.4375.0143-.0001z" fill="#b0afb0"/></g><g><path d="m24.0631 27.1031v.0083l-1.3594.79h-.0144l-1.4906-.8606v-.0083l1.3595-.79h.0143z" fill="#b0afb0"/></g><g><path d="m21.5272 27.5406v.0084l-1.3594.79h-.0144l-1.4906-.8606v-.0083l1.3595-.79h.0143z" fill="#b0afb0"/></g><g enable-background="new"><g><path d="m21.6857 24.5317v.0083l-.7529.4375-.0143.0001-1.487-.8586v-.0083l.7529-.4375h.0143z" fill="#b0afb0"/></g><g><path d="m20.6509 25.133v.0083l-1.3594.7901h-.0144l-1.487-.8585v-.0083l1.3595-.7901h.0143z" fill="#b0afb0"/></g><g><path d="m23.4492 25.5499.0037.0104-.7529.4375-.018-.0021-1.487-.8585v-.0083l.7529-.4375h.0144z" fill="#b0afb0"/></g><g><path d="m22.357 26.118v.0084l-1.3594.79h-.0144l-1.4906-.8606v-.0083l1.3595-.79h.0143z" fill="#b0afb0"/></g></g><g><path d="m21.9693 29.7263v.0083l-1.3597.7901h-.0143l-1.4906-.8606v-.0083l1.3596-.7901h.0144z" fill="#b0afb0"/></g><g><path d="m21.2867 31.2173v.0083l-1.3596.7901h-.0144l-1.4905-.8605-.0001-.0084 1.3597-.7901h.0143z" fill="#b0afb0"/></g><g><path d="m22.982 32.1961v.0083l-1.3596.7901h-.0144l-1.487-.8585v-.0083l1.3597-.7901.0143-.0001z" fill="#b0afb0"/></g><g><path d="m23.6753 30.7113.0001.0083-1.3597.7901h-.0143l-1.4906-.8605v-.0084l1.3596-.7901h.0144z" fill="#b0afb0"/></g><g><path d="m24.9286 29.5044.0036.0104-1.3594.7901-.018-.0021-1.487-.8585v-.0083l1.3595-.7901h.0143z" fill="#b0afb0"/></g><g enable-background="new"><g><path d="m27.4717 29.071v.0083l-1.3595.79h-.0143l-1.4906-.8605v-.0083l1.3594-.7901h.0144z" fill="#b0afb0"/></g><g><path d="m29.1742 30.0539.0036.0104-1.3595.79-.0179-.002-1.487-.8585v-.0083l1.3594-.7901h.0144z" fill="#b0afb0"/></g><g><path d="m26.6311 30.4874v.0083l-1.3594.79h-.0144l-1.487-.8585v-.0083l1.3595-.79h.0143z" fill="#b0afb0"/></g></g><g><path d="m25.3814 31.6963.0001.0083-1.3597.7901-.0143.0001-1.4906-.8606v-.0084l1.3596-.7901h.0144z" fill="#b0afb0"/></g><g><path d="m28.3336 31.4703v.0083l-1.3594.7901h-.0144l-1.487-.8585-.0036-.0104 1.3595-.7901.0179.0021z" fill="#b0afb0"/></g><g><path d="m36.8425 36.3829v.0083l-1.3595.7901h-.0143l-1.487-.8585v-.0084l1.3594-.79h.0144z" fill="#b0afb0"/></g><g><path d="m42.8555 36.7541.0001.0083-.753.4375-.0143.0001-1.4906-.8606v-.0083l.7529-.4376h.0143z" fill="#b0afb0"/></g><g><path d="m41.092 35.7359v.0083l-.7529.4376h-.0144l-1.4905-.8606-.0001-.0083.7529-.4376h.0144z" fill="#b0afb0"/></g><g enable-background="new"><g><path d="m37.5613 33.6975.0036.0103-.7529.4376-.018-.0021-1.4869-.8585-.0001-.0083.7529-.4375.0144-.0001z" fill="#b0afb0"/></g><g><path d="m39.3284 34.7177v.0083l-.7529.4376h-.0143l-1.4906-.8606v-.0083l.7529-.4376h.0143z" fill="#b0afb0"/></g><g><path d="m37.701 34.9769v.0083l-1.3594.79-.0144.0001-1.4906-.8606v-.0083l1.3595-.7901h.0143z" fill="#b0afb0"/></g><g><path d="m39.4035 35.9598v.0084l-1.3594.79h-.0144l-1.487-.8585v-.0083l1.3595-.7901h.0143z" fill="#b0afb0"/></g></g><g><path d="m35.7977 32.6793v.0083l-.7529.4375h-.0143l-1.487-.8585v-.0083l.7529-.4375.0143-.0001z" fill="#b0afb0"/></g><g enable-background="new"><g><path d="m32.5863 32.0239v.0084l-1.3594.79h-.0144l-1.4905-.8606v-.0083l1.3594-.79h.0144z" fill="#b0afb0"/></g><g><path d="m34.2888 33.0069v.0083l-1.3594.79h-.0144l-1.4869-.8585-.0001-.0083 1.3595-.79h.0143z" fill="#b0afb0"/></g><g><path d="m31.7386 33.4362v.0083l-1.3595.79h-.0143l-1.4906-.8605v-.0084l1.3594-.79h.0144z" fill="#b0afb0"/></g><g><path d="m35.9949 33.9919v.0083l-1.3594.79h-.0144l-1.4906-.8605v-.0084l1.3595-.79h.0143z" fill="#b0afb0"/></g><g><path d="m33.4411 34.4191v.0083l-1.3595.7901h-.0143l-1.4906-.8606v-.0083l1.3595-.79.0143-.0001z" fill="#b0afb0"/></g></g><g><path d="m35.14 35.4.0036.0104-1.3595.79-.0179-.0021-1.487-.8585v-.0083l1.3594-.79h.0144z" fill="#b0afb0"/></g><g><path d="m33.9155 36.6234v.0083l-1.3597.7901-.0143.0001-1.4906-.8606v-.0083l1.3596-.7902h.0144z" fill="#b0afb0"/></g><g enable-background="new"><g><path d="m30.0008 38.2617v.0083l-1.3594.7901h-.0144l-1.7815-1.0286v-.0083l1.3594-.79h.0144z" fill="#b0afb0"/></g><g><path d="m31.7069 39.2467v.0083l-1.3595.7901h-.0143l-1.2787-.7382v-.0084l1.3595-.79h.0143z" fill="#b0afb0"/></g></g><g><path d="m34.0342 31.6611v.0083l-.7529.4375h-.0144l-1.487-.8585v-.0083l.7529-.4375h.0144z" fill="#b0afb0"/></g><g><path d="m32.2706 30.6429v.0083l-.7529.4375-.0143.0001-1.487-.8586-.0036-.0103.7529-.4376.0179.0021z" fill="#b0afb0"/></g><g><path d="m30.8802 31.0389.0001.0084-1.3595.79h-.0143l-1.487-.8585-.0036-.0104 1.3594-.79.0179.002z" fill="#b0afb0"/></g><g enable-background="new"><g><path d="m30.0361 32.4533v.0083l-1.3594.79h-.0144l-1.4906-.8606v-.0083l1.3595-.79h.0143z" fill="#b0afb0"/></g><g><path d="m27.0875 32.6813v.0083l-1.3596.7901-.0143.0001-1.487-.8586-.0037-.0103 1.3597-.7902.0179.0021z" fill="#b0afb0"/></g><g><path d="m24.6809 33.1769v.0083l-1.3596.7902h-.0144l-1.4905-.8606-.0001-.0083 1.3597-.7901.0143-.0001z" fill="#b0afb0"/></g><g><path d="m28.7936 33.6663v.0083l-1.3596.7902h-.0144l-1.487-.8585v-.0084l1.3597-.7901h.0143z" fill="#b0afb0"/></g><g><path d="m26.3762 34.1557v.0083l-1.3596.7902h-.0144l-1.4869-.8585-.0037-.0104 1.3597-.7902.0179.0021z" fill="#b0afb0"/></g><g><path d="m30.4997 34.6513v.0083l-1.3596.7902h-.0144l-1.487-.8585v-.0083l1.3597-.7902h.0143z" fill="#b0afb0"/></g><g><path d="m28.0751 35.1366v.0083l-1.3596.7901h-.0143l-1.4906-.8606-.0001-.0083 1.3597-.7901h.0143z" fill="#b0afb0"/></g><g><path d="m32.2058 35.6363.0036.0104-1.3597.7901-.0179-.002-1.487-.8585v-.0083l1.3596-.7902h.0144z" fill="#b0afb0"/></g><g><path d="m29.7704 36.1154.0001.0083-1.3597.7901h-.0143l-1.4906-.8606v-.0083l1.3596-.7901h.0144z" fill="#b0afb0"/></g><g><path d="m27.8565 37.0237-1.3594.7984-8.1138-4.6762 1.3594-.7984z" fill="#b0afb0"/></g><g><path d="m31.4657 37.0942.0037.0103-1.3597.7902-.0179-.0021-1.487-.8585v-.0083l1.3596-.7902h.0144z" fill="#b0afb0"/></g></g><g><path d="m44.6191 37.7723v.0083l-.7529.4375h-.0143l-1.4906-.8605-.0001-.0084.753-.4375h.0143z" fill="#b0afb0"/></g><g enable-background="new"><g><path d="m40.2475 38.3488v.0083l-1.3595.79h-.0143l-1.4906-.8605v-.0084l1.3594-.79h.0144z" fill="#b0afb0"/></g><g><path d="m43.5843 38.3736v.0083l-1.3594.7901h-.0144l-2.2592-1.3044v-.0083l1.3594-.79h.0144z" fill="#b0afb0"/></g><g><path d="m40.2765 40.2959v.0083l-1.3597.7902h-.0143l-2.6974-1.5574v-.0083l1.3596-.7901h.0144z" fill="#b0afb0"/></g></g><g><path d="m38.6493 41.2416v.0083l-1.3597.7901h-.0143l-3.5594-2.055-.0001-.0083 1.3597-.7902h.0143z" fill="#b0afb0"/></g><g enable-background="new"><g><path d="m35.6215 37.6084.0001.0083-1.3597.7902h-.0143l-1.4906-.8606v-.0083l1.3596-.7902h.0144z" fill="#b0afb0"/></g><g><path d="m33.1646 38.075.0001.0083-1.3597.7902h-.0143l-1.4906-.8606v-.0083l1.3596-.7902h.0144z" fill="#b0afb0"/></g><g><path d="m37.3276 38.5934.0001.0083-1.3597.7902h-.0143l-1.4906-.8606v-.0083l1.3596-.7901.0143-.0001z" fill="#b0afb0"/></g><g><path d="m34.86 39.0538v.0083l-1.3597.7901-.0143.0001-1.487-.8585v-.0084l1.3596-.7901h.0144z" fill="#b0afb0"/></g></g><g><path d="m19.5878 30.2364.0036.0104-1.3596.7901-.018-.002-1.487-.8585v-.0083l1.3597-.7902h.0143z" fill="#b0afb0"/></g><g><path d="m17.2141 30.8793v.0084l-1.3594.79h-.0144l-1.275-.7362-.0001-.0083 1.3595-.79h.0143z" fill="#b0afb0"/></g><g><path d="m35.2551 41.2126v.0083l-.7029.4085-.0178.002-1.3685-.7901.0035-.0103.7029-.4085h.0144z" fill="#b0afb0"/></g><g><path d="m34.4343 41.6896.0002.0082-.7067.4107h-.0143l-1.3685-.7901v-.0083l.7067-.4107.0141.0001z" fill="#b0afb0"/></g><g><path d="m36.1368 42.6725.0002.0082-.7067.4107h-.0143l-1.3685-.7901v-.0083l.7067-.4106.0141.0001z" fill="#b0afb0"/></g><g><path d="m32.7318 40.7067.0002.0082-.7067.4106h-.0143l-1.3685-.7901v-.0083l.7067-.4106.0141.0001z" fill="#b0afb0"/></g><g><path d="m19.4087 32.1464v.0083l-1.3595.79h-.0143l-1.7779-1.0265v-.0083l1.3594-.79h.0144z" fill="#b0afb0"/></g><g><path d="m25.7656 28.086v.0083l-1.3595.79h-.0143l-1.487-.8585v-.0083l1.3594-.79h.0144z" fill="#b0afb0"/></g><g><path d="m23.2297 28.5236v.0083l-1.3594.79h-.0144l-1.4906-.8605v-.0084l1.3595-.79h.0143z" fill="#b0afb0"/></g><g><path d="m41.1096 36.9448v.0084l-1.3595.79h-.0143l-1.4906-.8606v-.0083l1.3594-.79h.0144z" fill="#b0afb0"/></g><g><path d="m38.545 37.3659v.0083l-1.3595.79h-.0143l-1.487-.8585-.0036-.0104 1.3594-.79.018.002z" fill="#b0afb0"/></g><g><path d="m41.9499 39.3317.0001.0083-1.3595.7901h-.0143l-1.4906-.8606v-.0083l1.3594-.79.0144-.0001z" fill="#b0afb0"/></g><g><path d="m26.98 27.5883v.0083l-.7529.4376h-.0144l-1.4906-.8606v-.0083l.7529-.4375.0144-.0001z" fill="#b0afb0"/></g><g><path d="m30.5071 29.6247v.0083l-.7529.4375-.0144.0001-1.4906-.8606v-.0083l.7529-.4376h.0144z" fill="#b0afb0"/></g><g><path d="m28.7435 28.6065v.0083l-.7529.4376h-.0143l-1.4906-.8606v-.0083l.7529-.4376h.0143z" fill="#b0afb0"/></g></g></g></g></g><g><g enable-background="new"><g fill="#bfbfbf"><path d="m25.4389 38.6177.1733-.1021-8.1852-4.7168-5.354 3.1465.1734.0996 5.1806-3.0444z"/><path d="m25.4389 38.6177-8.0119-4.6172-5.1806 3.0444 8.0118 4.6172z"/></g></g></g><path d="m45.8475 36.4829-.6684.3966-24.3245-14.1938.5599-.3093z" fill="#bfbfbf"/></g></g></g><g><g><g><path d="m33.5819 16.1445c.4969.2869.8961.9787.8946 1.5409-.0016.571-.4034.8004-.9004.5134-.497-.2869-.8962-.9787-.8946-1.5497.0016-.5622.4034-.7915.9004-.5046z" fill="#475160"/></g><g><path d="m33.575 18.5651c.9123.5267 1.6967 1.603 2.0576 2.6992-.4989.3947-1.2269.4013-2.0651-.0826-.8307-.4796-1.5712-1.3342-2.0514-2.2941.3586-.6808 1.1466-.8492 2.0589-.3225z" fill="#475160"/></g><g><path d="m33.5852 14.9686c1.4908.8607 2.6959 2.9477 2.691 4.6697-.0021.75-.2489 1.3157-.6435 1.626-.3609-1.0962-1.1454-2.1725-2.0576-2.6992-.9123-.5267-1.7003-.3583-2.0588.3226-.4064-.7728-.6417-1.6168-.6396-2.3668.0047-1.722 1.2176-2.413 2.7085-1.5523zm-.0092 3.2303c.4969.2869.8987.0576.9004-.5134.0016-.5623-.3976-1.254-.8945-1.5409-.497-.2869-.8988-.0576-.9004.5046-.0016.571.3976 1.2628.8945 1.5497" fill="#fff"/></g></g><g><g><path d="m36.436 23.5659-.0042 1.4677-6.8856-3.9754.0042-1.4677z" fill="#fff"/></g><g><path d="m36.4299 25.6941-.0042 1.4745-6.8856-3.9754.0042-1.4745z" fill="#fff"/></g></g></g></g></svg>