<svg id="Layer_1" enable-background="new 0 0 91 91" height="512" viewBox="0 0 91 91" width="512" xmlns="http://www.w3.org/2000/svg"><g><path d="m64 51.7h-58.3c-1 0-1.8.8-1.8 1.8v29.7c0 1 .8 1.8 1.8 1.8h55.6c1 0 1.8-.8 1.8-1.8s-.7-1.7-1.7-1.8l2.3-26.1h.3c1 0 1.8-.8 1.8-1.8s-.8-1.8-1.8-1.8z" fill="#d2d2d4"/><path d="m85.2 8.5h-57.3c-.9 0-1.7.7-1.7 1.7 0 .8.6 1.5 1.4 1.6l-4 26.4h-.3c-.9 0-1.7.7-1.7 1.7 0 .9.7 1.7 1.7 1.7h61.9c.9 0 1.7-.7 1.7-1.7v-29.8c0-.9-.7-1.6-1.7-1.6z" fill="#e6e8ea"/><path d="m64 19.7h-20c-1 0-1.8-.8-1.8-1.8s.8-1.8 1.8-1.8h20c1 0 1.8.8 1.8 1.8 0 .9-.8 1.8-1.8 1.8z" fill="#d2d2d4"/><path d="m71.1 19.7h-.7c-1 0-1.8-.8-1.8-1.8s.8-1.8 1.8-1.8h.7c1 0 1.8.8 1.8 1.8.1.9-.8 1.8-1.8 1.8z" fill="#d2d2d4"/><path d="m49.1 26.5h-5c-1 0-1.8-.8-1.8-1.8s.8-1.8 1.8-1.8h5c1 0 1.8.8 1.8 1.8s-.8 1.8-1.8 1.8z" fill="#d2d2d4"/><path d="m75.6 26.5h-20.3c-1 0-1.8-.8-1.8-1.8s.8-1.8 1.8-1.8h20.3c1 0 1.8.8 1.8 1.8s-.8 1.8-1.8 1.8z" fill="#d2d2d4"/><path d="m64 34h-19.5c-1 0-1.8-.8-1.8-1.8s.8-1.8 1.8-1.8h19.5c1 0 1.8.8 1.8 1.8s-.8 1.8-1.8 1.8z" fill="#fff"/><path d="m74 34h-3.5c-1 0-1.8-.8-1.8-1.8s.8-1.8 1.8-1.8h3.5c1 0 1.8.8 1.8 1.8s-.8 1.8-1.8 1.8z" fill="#fff"/><path d="m19.6 6.1c-10.4 0-18.9 8.5-18.9 18.9s8.5 18.8 18.8 18.8 18.9-8.4 18.9-18.8-8.4-18.9-18.8-18.9z" fill="#ef9a9a"/><path d="m71 49.6c-10.4 0-18.8 8.5-18.8 18.8 0 10.4 8.5 18.8 18.8 18.8s18.8-8.5 18.8-18.8c.1-10.4-8.4-18.8-18.8-18.8z" fill="#87aedc"/><g fill="#fff"><path d="m20.2 34.1h-1.2c-3.9 0-7.1-3.2-7.1-7.1v-4.6c0-3.9 3.2-7.1 7.1-7.1h1.2c3.9 0 7.1 3.2 7.1 7.1v4.6c0 3.9-3.2 7.1-7.1 7.1zm-1.2-15.1c-1.9 0-3.4 1.5-3.4 3.4v4.6c0 1.9 1.5 3.4 3.4 3.4h1.2c1.9 0 3.4-1.5 3.4-3.4v-4.6c0-1.9-1.5-3.4-3.4-3.4z"/><path d="m25.4 34.1c-.5 0-1-.2-1.4-.6l-4-4.6c-.7-.8-.6-1.9.1-2.6.8-.7 1.9-.6 2.6.1l4.1 4.5c.7.8.6 1.9-.1 2.6-.4.4-.8.6-1.3.6z"/><path d="m77.2 77.4c-.8 0-1.6-.5-1.8-1.4l-3.4-13.2c-.1-.1-.3-.3-1-.3-.8 0-1.1.3-1.1.3l-3.3 13.2c-.2 1-1.3 1.6-2.2 1.3-1-.2-1.6-1.2-1.3-2.2l3.3-13.2c.3-1.2 1.6-3.1 4.6-3.1 2.8 0 4.2 1.8 4.5 2.8l3.5 13.5c.3 1-.3 2-1.3 2.2-.1.1-.3.1-.5.1z"/><path d="m70.8 72.8h-4.9c-1 0-1.8-.8-1.8-1.8s.8-1.8 1.8-1.8h4.9c1 0 1.8.8 1.8 1.8s-.8 1.8-1.8 1.8z"/><path d="m33.8 63.1h-18.4c-1 0-1.8-.8-1.8-1.8s.8-1.8 1.8-1.8h18.4c1 0 1.8.8 1.8 1.8s-.8 1.8-1.8 1.8z"/><path d="m40 63.1h-.7c-1 0-1.8-.8-1.8-1.8s.8-1.8 1.8-1.8h.7c1 0 1.8.8 1.8 1.8s-.8 1.8-1.8 1.8z"/><path d="m25 70h-9.6c-1 0-1.8-.8-1.8-1.8s.8-1.8 1.8-1.8h9.6c1 0 1.8.8 1.8 1.8s-.8 1.8-1.8 1.8z"/><path d="m44 70h-13.9c-1 0-1.8-.8-1.8-1.8s.8-1.8 1.8-1.8h13.9c1 0 1.8.8 1.8 1.8s-.8 1.8-1.8 1.8z"/></g><path d="m35.3 77.4h-19.5c-1 0-1.8-.8-1.8-1.8s.8-1.8 1.8-1.8h19.5c1 0 1.8.8 1.8 1.8s-.8 1.8-1.8 1.8z" fill="#e6e8ea"/><path d="m42.5 77.4h-1.7c-1 0-1.8-.8-1.8-1.8s.8-1.8 1.8-1.8h1.7c1 0 1.8.8 1.8 1.8s-.7 1.8-1.8 1.8z" fill="#e6e8ea"/></g></svg>