<?xml version="1.0"?>
<svg xmlns="http://www.w3.org/2000/svg" xmlns:xlink="http://www.w3.org/1999/xlink" xmlns:svgjs="http://svgjs.com/svgjs" version="1.1" width="512" height="512" x="0" y="0" viewBox="0 0 100 100" style="enable-background:new 0 0 512 512" xml:space="preserve"><g><path xmlns="http://www.w3.org/2000/svg" id="Icon_17_" d="m79.231 45.729c0 6.184-1.026 11.581-3.077 16.188-2.051 4.608-4.883 8.305-8.496 11.091l10.792 8.542-9.966 8.45-14.374-11.573c-1.347.184-2.694.276-4.041.276-5.695 0-10.746-1.316-15.155-3.949s-7.845-6.399-10.31-11.297-3.743-10.532-3.835-16.9v-3.537c0-6.582 1.202-12.369 3.605-17.359s5.832-8.847 10.287-11.573 9.56-4.088 15.316-4.088c5.664 0 10.716 1.348 15.155 4.041 4.439 2.694 7.891 6.529 10.356 11.504 2.465 4.976 3.712 10.677 3.743 17.107zm-16.395-2.801c0-6.643-1.11-11.688-3.33-15.132s-5.396-5.166-9.529-5.166c-4.256 0-7.455 1.699-9.598 5.098s-3.23 8.374-3.261 14.925v3.077c0 6.583 1.087 11.626 3.261 15.132s5.404 5.258 9.69 5.258c4.103 0 7.248-1.729 9.437-5.189s3.299-8.434 3.33-14.925z" fill="#f32121" data-original="#2196f3" style=""/></g></svg>
